<svg width="75" height="9" viewBox="0 0 75 9" fill="none" xmlns="http://www.w3.org/2000/svg">
<path fill-rule="evenodd" clip-rule="evenodd" d="M5.14227 7.60205V8.16382H0.510498V0.677387H1.89773V7.60205H5.14227ZM7.36832 8.16382H5.99259V0.677387H7.36832V8.16382ZM15.3822 4.66704V7.19123C14.9408 7.57529 14.4841 7.86386 14.0103 8.05682C13.5364 8.24982 13.0454 8.34725 12.537 8.34725C11.4212 8.34725 10.5174 7.98614 9.82566 7.26384C9.13586 6.54155 8.78998 5.59571 8.78998 4.42443C8.78998 3.3085 9.13777 2.37801 9.83524 1.63281C10.5308 0.889504 11.3944 0.516846 12.4243 0.516846C13.0529 0.516846 13.5956 0.644861 14.058 0.902841C14.5185 1.16081 14.9007 1.54678 15.2026 2.06079L14.7555 2.37418C14.5223 1.91935 14.2357 1.57737 13.8956 1.34998C13.5536 1.12263 13.158 1.00985 12.711 1.00985C11.96 1.00985 11.3657 1.31943 10.9262 1.93851C10.4887 2.55954 10.269 3.4041 10.269 4.47603C10.269 5.50596 10.4792 6.30649 10.8995 6.87975C11.318 7.45302 11.9046 7.73968 12.6536 7.73968C12.9459 7.73968 13.2173 7.69566 13.4695 7.60588C13.7198 7.51604 13.9377 7.38419 14.1211 7.21415V4.66704H15.3822ZM18.3076 4.63271V8.16382H16.9204V0.677387H18.3076V4.08239H21.4375V0.677387H22.8133V8.16382H21.4375V4.63271H18.3076ZM25.8075 8.16382V1.23914H23.847V0.677387H29.1437V1.23914H27.1833V8.16382H25.8075ZM31.5761 8.16382H30.2003V0.677387H31.5761V8.16382ZM33.5137 8.16382V0.677387H34.7844L38.6614 5.84601V0.677387H39.3263V8.16382H38.6614L34.1786 2.20029V8.16382H33.5137ZM47.2809 4.66704V7.19123C46.8395 7.57529 46.3828 7.86386 45.9089 8.05682C45.435 8.24982 44.944 8.34725 44.4357 8.34725C43.3198 8.34725 42.416 7.98614 41.7243 7.26384C41.0345 6.54155 40.6887 5.59571 40.6887 4.42443C40.6887 3.3085 41.0365 2.37801 41.7339 1.63281C42.4294 0.889504 43.2931 0.516846 44.323 0.516846C44.9516 0.516846 45.4943 0.644861 45.9567 0.902841C46.4172 1.16081 46.7994 1.54678 47.1012 2.06079L46.6542 2.37418C46.421 1.91935 46.1344 1.57737 45.7943 1.34998C45.4523 1.12263 45.0567 1.00985 44.6096 1.00985C43.8587 1.00985 43.2644 1.31943 42.8249 1.93851C42.3873 2.55954 42.1676 3.4041 42.1676 4.47603C42.1676 5.50596 42.3778 6.30649 42.7982 6.87975C43.2166 7.45302 43.8033 7.73968 44.5523 7.73968C44.8446 7.73968 45.116 7.69566 45.3682 7.60588C45.6185 7.51604 45.8364 7.38419 46.0198 7.21415V4.66704H47.2809ZM50.2063 4.63271V8.16382H48.819V0.677387H50.2063V4.08239H53.3361V0.677387H54.7119V8.16382H53.3361V4.63271H50.2063ZM57.2495 5.69889H59.4277L58.3367 2.96844L57.2495 5.69889ZM55.6196 8.16382L58.694 0.52836L61.8907 8.16382H60.4137L59.6341 6.16897H57.0546L56.2826 8.16382H55.6196ZM62.5863 0.677387H63.9735V5.19832C63.9735 6.07913 64.0977 6.69249 64.3442 7.03836C64.5907 7.38419 65.0073 7.55621 65.5939 7.55621C66.1786 7.55621 66.5951 7.38419 66.8398 7.03836C67.0843 6.69249 67.2066 6.07913 67.2066 5.19832V0.677387H67.8715V5.45052C67.8715 6.41543 67.6518 7.13963 67.2142 7.62305C66.7747 8.10647 66.1155 8.34725 65.2346 8.34725C64.8429 8.34725 64.4665 8.27657 64.1073 8.13513C63.7461 7.99378 63.45 7.79883 63.2188 7.55237C62.9914 7.31351 62.829 7.0403 62.7315 6.73266C62.634 6.42502 62.5863 5.99888 62.5863 5.45052V0.677387ZM69.8721 6.74215C70.0365 7.05553 70.2467 7.30017 70.5027 7.47595C70.7568 7.65174 71.032 7.73968 71.3282 7.73968C71.7275 7.73968 72.0523 7.61347 72.3027 7.36127C72.553 7.10904 72.6771 6.78616 72.6771 6.39059C72.6771 5.75816 72.1192 5.21357 71.0014 4.75498L70.9861 4.74924C70.3843 4.50278 69.9581 4.22383 69.7078 3.91425C69.4556 3.60471 69.3295 3.21297 69.3295 2.73915C69.3295 2.08944 69.5454 1.55636 69.9791 1.14171C70.4109 0.725147 70.9709 0.516846 71.6587 0.516846C72.1728 0.516846 72.6237 0.633465 73.0096 0.864654C73.3956 1.09587 73.6822 1.4245 73.8695 1.84868L73.3765 2.17923C73.2543 1.82957 73.0689 1.56011 72.8223 1.37293C72.5759 1.18373 72.2835 1.0901 71.9435 1.0901C71.5804 1.0901 71.2842 1.20664 71.053 1.43976C70.8218 1.67289 70.7053 1.9767 70.7053 2.35502C70.7053 2.65313 70.8008 2.90533 70.9919 3.11555C71.181 3.32382 71.5384 3.53969 72.0619 3.76332C72.8854 4.11872 73.43 4.45696 73.6918 4.78173C73.9555 5.10655 74.0873 5.52313 74.0873 6.02944C74.0873 6.70206 73.8542 7.25617 73.3899 7.69183C72.9255 8.12939 72.337 8.34725 71.6243 8.34725C71.1084 8.34725 70.6652 8.24792 70.2925 8.05104C69.918 7.85427 69.5931 7.54854 69.318 7.13389L69.8721 6.74215Z" fill="white"/>
</svg>
