<svg width="11" height="7" viewBox="0 0 11 7" fill="none" xmlns="http://www.w3.org/2000/svg">
<path fill-rule="evenodd" clip-rule="evenodd" d="M1.31558 6.20053V1.55343H0V1.17646H3.55447V1.55343H2.23889V6.20053H1.31558ZM4.83941 6.20053H4.10849V0.82251H4.83941V4.25402H6.08577V2.90759H6.81669V6.20053H6.08577V4.53865H4.83941V6.20053ZM7.84772 3.50005C7.84772 3.25381 7.88616 3.09225 7.96313 3.02301C8.0477 2.94602 8.20928 2.90759 8.46325 2.90759H10.0327V3.19223H8.90945C8.77862 3.19223 8.68629 3.20764 8.64788 3.24613C8.60172 3.28457 8.57863 3.35381 8.57863 3.45387V4.28478H9.77116V4.6079H8.57863V5.65428C8.57863 5.75426 8.60172 5.82351 8.64788 5.862C8.69405 5.9005 8.79403 5.91592 8.96326 5.91592H10.0712V6.20053H8.34775C8.16312 6.20053 8.03238 6.16205 7.95537 6.08516C7.88615 6.00823 7.84772 5.8466 7.84772 5.60811V3.50005Z" fill="white"/>
</svg>
