<svg width="25" height="20" viewBox="0 0 16 12" fill="none" xmlns="http://www.w3.org/2000/svg">
<path fill-rule="evenodd" clip-rule="evenodd" d="M1.02856 11.5519L14.7471 11.5639C13.4885 10.7232 9.69888 10.3015 7.88746 10.3016C7.3795 10.3017 6.70155 10.3364 5.96393 10.4051C6.04245 9.85561 6.04905 4.34867 5.97118 3.94173C4.75628 4.1542 5.06799 5.47611 5.06758 6.7106C5.06717 7.97024 5.08739 9.24518 5.06446 10.503C3.44801 10.7044 1.76021 11.0558 1.02856 11.5519ZM8.28287 5.57023H9.48133C9.43777 4.49347 9.36567 3.45849 10.4967 3.33298L10.4975 9.90247L9.50013 9.80999C9.47044 8.71262 9.48993 7.58492 9.49424 6.47844H8.28275L8.28241 9.74491L7.05371 9.76077C7.05297 8.10022 7.05313 6.43957 7.05389 4.77901C7.05446 3.41017 6.64102 1.00885 8.28332 1.10381L8.28287 5.57023ZM3.50007 10.1583C4.50549 10.1812 4.29517 9.89703 4.29451 8.97376L4.29386 5.49121C3.91384 5.4448 3.62146 5.70548 3.53583 6.01638C3.46028 6.29037 3.50644 9.68678 3.50007 10.1583ZM12.276 10.1623L12.2725 5.4813C11.2214 5.43942 11.481 6.90388 11.481 7.78518C11.4809 10.2063 11.26 10.1591 12.276 10.1623Z" fill="black" stroke="black" stroke-width="0.216"/>
</svg>
